<svg width="24" height="24" viewBox="0 0 24 24" fill="none" xmlns="http://www.w3.org/2000/svg">
<g id="vuesax/bold/like">
<g id="like">
<path id="Vector" d="M8.38965 18.4901V8.33012C8.38965 7.93012 8.50965 7.54012 8.72965 7.21012L11.4596 3.15012C11.8896 2.50012 12.9596 2.04012 13.8696 2.38012C14.8496 2.71012 15.4996 3.81012 15.2896 4.79012L14.7696 8.06012C14.7296 8.36012 14.8096 8.63012 14.9796 8.84012C15.1496 9.03012 15.3996 9.15012 15.6696 9.15012H19.7796C20.5696 9.15012 21.2496 9.47012 21.6496 10.0301C22.0296 10.5701 22.0996 11.2701 21.8496 11.9801L19.3896 19.4701C19.0796 20.7101 17.7296 21.7201 16.3896 21.7201H12.4896C11.8196 21.7201 10.8796 21.4901 10.4496 21.0601L9.16965 20.0701C8.67965 19.7001 8.38965 19.1101 8.38965 18.4901Z" fill="#1D9E34"/>
<path id="Vector_2" d="M5.21 6.38012H4.18C2.63 6.38012 2 6.98012 2 8.46012V18.5201C2 20.0001 2.63 20.6001 4.18 20.6001H5.21C6.76 20.6001 7.39 20.0001 7.39 18.5201V8.46012C7.39 6.98012 6.76 6.38012 5.21 6.38012Z" fill="#1D9E34"/>
</g>
</g>
</svg>
