<svg width="100" height="67" viewBox="0 0 100 67" fill="none" xmlns="http://www.w3.org/2000/svg">
<g id="Payoneer-Logo.wine (1) 1">
<path id="Vector" d="M31.1102 22.0924C31.2049 24.2377 33.0586 32.4243 33.0586 32.4243C33.7397 34.0824 34.3261 32.4243 34.3261 32.4243C36.5687 25.6987 31.9859 21.8013 31.9859 21.8013C30.816 21.1175 31.1102 22.0924 31.1102 22.0924ZM57.7189 20.9235C57.7189 20.9235 59.9625 22.483 57.7189 22.7751C57.7189 22.7751 49.3358 23.7495 43.0981 29.5994C43.0981 29.5994 33.7397 37.7842 30.2316 46.7523C30.2316 46.7523 29.0617 46.7523 29.4532 44.9984C29.8427 43.2442 32.1809 35.5434 42.6094 26.0903C42.6094 26.0903 52.652 16.9273 57.7189 20.9235Z" fill="#FF4600"/>
<path id="Vector_2" d="M15.0719 33.8997C15.4422 33.9776 15.7747 34.0159 16.2631 34.0159C18.1751 34.0159 19.4634 32.7861 19.4634 31.2241C19.4634 29.819 18.4683 29.3121 17.1811 29.3121C16.6137 29.3121 16.1843 29.3514 15.9114 29.4285L15.0719 33.8997ZM13.9983 27.8087C14.7988 27.6127 15.9899 27.4965 17.1609 27.4965C18.3913 27.4965 19.6795 27.7492 20.538 28.4334C21.2993 29.0189 21.7482 29.8764 21.7482 31.0494C21.7482 32.6103 21.0061 33.8805 20.069 34.6215C19.0155 35.461 17.511 35.871 15.9495 35.871C15.4805 35.871 15.0719 35.8117 14.7202 35.7734L13.7635 40.7517H11.5391L13.9983 27.8087ZM27.7789 32.8833C27.5451 32.8237 27.2529 32.7861 26.8427 32.7861C24.7539 32.7861 23.1138 35.149 23.1138 37.3161C23.1138 38.3101 23.4847 39.1309 24.4808 39.1309C25.5535 39.1309 26.8427 37.8043 27.2917 35.3828L27.7789 32.8833ZM26.8619 40.7517C26.8619 40.1844 26.9396 39.4241 27.0186 38.6225H26.9793C26.0425 40.3612 24.7729 40.9658 23.5627 40.9658C21.8649 40.9658 20.7509 39.6382 20.7509 37.7257C20.7509 34.485 23.0156 31.0292 27.4473 31.0292C28.4817 31.0292 29.5947 31.2241 30.3368 31.4584L29.3414 36.4171C29.0673 37.8223 28.9116 39.6189 28.9508 40.7517H26.8619ZM43.2567 36.9836C43.2567 38.2901 43.9399 39.2102 45.1112 39.2102C46.8096 39.2102 47.9423 36.8663 47.9423 34.9728C47.9423 33.9958 47.4924 32.7856 46.127 32.7856C44.3112 32.7856 43.2567 35.2072 43.2567 36.9836ZM50.2847 34.9542C50.2847 38.1938 48.039 40.9655 44.7994 40.9655C42.397 40.9655 40.9149 39.3064 40.9149 37.0411C40.9149 33.8211 43.1594 31.0293 46.4 31.0293C48.9571 31.0293 50.2847 32.8643 50.2847 34.9542ZM50.7122 40.7517L51.9427 34.1917C52.1763 33.0592 52.313 32.0636 52.4303 31.2444H54.4619L54.2467 32.9428H54.2849C55.1627 31.6732 56.3739 31.0292 57.7015 31.0292C59.0673 31.0292 60.1219 31.85 60.1219 33.6456C60.1219 34.0744 60.0453 34.7378 59.9471 35.2069L58.9106 40.7517H56.6269L57.6411 35.3828C57.7017 35.0317 57.7596 34.6215 57.7596 34.2502C57.7596 33.4497 57.4668 32.8833 56.569 32.8833C55.5346 32.8833 54.2065 34.1323 53.7967 36.3592L52.9772 40.7517H50.7122ZM66.1714 32.7276C64.7455 32.7276 63.8095 33.9963 63.5363 35.149C65.8782 35.1681 67.3826 34.8558 67.3826 33.7045C67.3826 33.0993 66.8944 32.7276 66.1714 32.7276ZM68.3383 40.2045C67.4008 40.6922 66.1331 40.9658 64.9804 40.9658C62.3474 40.9658 61.0777 39.3464 61.0777 37.0227C61.0777 34.1528 63.1846 31.0296 66.4646 31.0296C68.3383 31.0296 69.5295 32.1027 69.5295 33.7045C69.5295 36.144 66.973 36.9245 63.3031 36.847C63.2632 37.1783 63.3414 37.8223 63.5566 38.1937C63.9278 38.8387 64.609 39.17 65.5083 39.17C66.583 39.17 67.4405 38.8965 68.1258 38.5454L68.3383 40.2045ZM75.0129 32.7276C73.5886 32.7276 72.6511 33.9963 72.3778 35.149C74.7197 35.1681 76.2243 34.8558 76.2243 33.7045C76.2243 33.0993 75.7361 32.7276 75.0129 32.7276ZM77.18 40.2045C76.2439 40.6922 74.9746 40.9658 73.8239 40.9658C71.1889 40.9658 69.9192 39.3464 69.9192 37.0227C69.9192 34.1528 72.0263 31.0296 75.3062 31.0296C77.1798 31.0296 78.3732 32.1027 78.3732 33.7045C78.3732 36.144 75.8147 36.9245 72.1446 36.847C72.1043 37.1783 72.1829 37.8223 72.3981 38.1937C72.7694 38.8387 73.4522 39.17 74.35 39.17C75.4246 39.17 76.2822 38.8965 76.9674 38.5454L77.18 40.2045ZM78.5078 40.7517L79.6202 34.8947C79.8737 33.5478 80.0102 32.0837 80.1063 31.2442H82.0789C82.0205 31.8883 81.9626 32.5518 81.8643 33.236H81.9222C82.5693 31.9664 83.6015 31.0292 84.8909 31.0292C85.0677 31.0292 85.2426 31.0494 85.3993 31.0494L84.9492 33.2748C84.8324 33.2546 84.6763 33.2546 84.5195 33.2546C82.8981 33.2546 81.8643 34.8947 81.4945 36.9245L80.7715 40.7517H78.5078ZM87.1263 32.114H87.293C87.4636 32.114 87.5764 32.0187 87.5764 31.8751C87.5764 31.7132 87.4579 31.6423 87.2873 31.6423C87.2087 31.6423 87.1528 31.648 87.1264 31.6541L87.1263 32.114ZM86.9636 31.5404C87.0664 31.5232 87.1705 31.5145 87.2748 31.5146C87.4476 31.5146 87.5624 31.5497 87.6384 31.6179C87.701 31.6733 87.7372 31.7597 87.7372 31.8589C87.7372 32.0224 87.6343 32.1331 87.5019 32.1771V32.1832C87.5981 32.2164 87.6544 32.3068 87.6866 32.4371C87.7269 32.611 87.757 32.7336 87.7832 32.7827H87.6146C87.5944 32.7444 87.566 32.6384 87.534 32.4817C87.4957 32.3078 87.4258 32.2438 87.2789 32.2376H87.1264V32.7827H86.9636V31.5404Z" fill="#0B0F0E"/>
<path id="Vector_3" d="M87.3358 31.0295C87.0375 31.0297 86.7515 31.1483 86.5406 31.3592C86.3297 31.5701 86.2111 31.8561 86.2109 32.1544C86.2109 32.775 86.7153 33.2798 87.3358 33.2798C87.9564 33.2798 88.4607 32.775 88.4607 32.1544C88.4605 31.8561 88.3419 31.5701 88.131 31.3592C87.9201 31.1483 87.6341 31.0297 87.3358 31.0295ZM87.3358 31.2033C87.4607 31.2033 87.5843 31.2279 87.6996 31.2757C87.815 31.3235 87.9198 31.3936 88.008 31.4819C88.0962 31.5703 88.1662 31.6751 88.2138 31.7905C88.2615 31.9059 88.286 32.0296 88.2858 32.1544C88.2858 32.6804 87.8602 33.1065 87.3358 33.1065C87.2108 33.1065 87.087 33.0819 86.9714 33.034C86.8559 32.9862 86.751 32.9161 86.6625 32.8277C86.5741 32.7393 86.504 32.6343 86.4561 32.5188C86.4083 32.4033 86.3836 32.2795 86.3836 32.1544C86.3836 32.0294 86.4082 31.9056 86.456 31.7901C86.5039 31.6746 86.574 31.5697 86.6625 31.4814C86.7509 31.393 86.8559 31.323 86.9714 31.2753C87.087 31.2275 87.2108 31.2031 87.3358 31.2033Z" fill="#0B0F0E"/>
</g>
</svg>
