<svg width="100" height="67" viewBox="0 0 100 67" fill="none" xmlns="http://www.w3.org/2000/svg">
<g id="PayPal-Logo.wine (1) 1">
<path id="Vector" d="M40.3015 28.1423H36.0447C35.9038 28.1422 35.7675 28.1925 35.6603 28.284C35.5532 28.3755 35.4822 28.5023 35.4603 28.6415L33.7386 39.557C33.7307 39.6077 33.7339 39.6594 33.7479 39.7087C33.7619 39.7581 33.7864 39.8037 33.8198 39.8427C33.8532 39.8816 33.8946 39.9128 33.9411 39.9342C33.9877 39.9556 34.0384 39.9666 34.0897 39.9666H36.1219C36.2629 39.9666 36.3993 39.9163 36.5065 39.8246C36.6136 39.733 36.6845 39.6061 36.7064 39.4668L37.1707 36.5227C37.1925 36.3835 37.2633 36.2566 37.3703 36.165C37.4774 36.0734 37.6136 36.023 37.7545 36.0229H39.1021C41.9061 36.0229 43.5244 34.666 43.947 31.9771C44.1375 30.8007 43.9551 29.8764 43.4043 29.2291C42.7993 28.5183 41.7262 28.1423 40.3015 28.1423ZM40.7926 32.129C40.5598 33.6564 39.3927 33.6564 38.2643 33.6564H37.6219L38.0726 30.8038C38.0858 30.7204 38.1283 30.6444 38.1926 30.5895C38.2568 30.5346 38.3385 30.5044 38.423 30.5044H38.7174C39.4861 30.5044 40.2112 30.5044 40.5859 30.9426C40.8094 31.204 40.8779 31.5924 40.7926 32.129ZM53.0257 32.0798H50.9873C50.9028 32.0798 50.8211 32.11 50.7568 32.1648C50.6926 32.2197 50.6501 32.2957 50.6369 32.3792L50.5466 32.9493L50.4041 32.7427C49.9628 32.1022 48.9787 31.8881 47.9965 31.8881C45.744 31.8881 43.8201 33.5942 43.4454 35.9874C43.2505 37.1812 43.5275 38.3227 44.2047 39.1188C44.8259 39.8508 45.7147 40.1558 46.7722 40.1558C48.5872 40.1558 49.5937 38.9887 49.5937 38.9887L49.5028 39.5551C49.4947 39.6058 49.4977 39.6576 49.5115 39.707C49.5254 39.7563 49.5498 39.8021 49.583 39.8412C49.6163 39.8802 49.6576 39.9116 49.7041 39.9331C49.7507 39.9547 49.8013 39.9659 49.8526 39.9659H51.6888C51.8298 39.966 51.9662 39.9157 52.0734 39.824C52.1805 39.7324 52.2514 39.6054 52.2732 39.4661L53.3749 32.4894C53.383 32.4388 53.3801 32.3871 53.3663 32.3379C53.3524 32.2886 53.3281 32.2429 53.2949 32.204C53.2617 32.165 53.2204 32.1338 53.174 32.1123C53.1275 32.0909 53.0769 32.0798 53.0257 32.0798ZM50.1844 36.0471C49.9877 37.2117 49.0634 37.9935 47.8845 37.9935C47.2926 37.9935 46.8195 37.8036 46.5158 37.4439C46.2145 37.0866 46.1 36.5781 46.1959 36.0117C46.3795 34.8571 47.3193 34.0498 48.4802 34.0498C49.059 34.0498 49.5296 34.2421 49.8395 34.605C50.1501 34.9716 50.2734 35.4832 50.1844 36.0471ZM63.8821 32.0798H61.8337C61.7371 32.08 61.642 32.1037 61.5566 32.1489C61.4713 32.1941 61.3982 32.2595 61.3438 32.3394L58.5186 36.5009L57.3211 32.5018C57.2843 32.3798 57.2093 32.2729 57.1071 32.1969C57.0048 32.1209 56.8808 32.0799 56.7534 32.0798H54.7405C54.684 32.0797 54.6283 32.093 54.578 32.1187C54.5277 32.1445 54.4843 32.1818 54.4513 32.2278C54.4184 32.2737 54.3969 32.3268 54.3886 32.3827C54.3804 32.4386 54.3855 32.4956 54.4038 32.5491L56.6601 39.1705L54.5389 42.165C54.5012 42.2181 54.4788 42.2805 54.4742 42.3455C54.4697 42.4104 54.4831 42.4754 54.5129 42.5332C54.5428 42.5911 54.5881 42.6396 54.6437 42.6734C54.6993 42.7073 54.7632 42.7252 54.8283 42.7252H56.8742C56.9697 42.7253 57.0639 42.7022 57.1485 42.658C57.2332 42.6138 57.3059 42.5497 57.3603 42.4712L64.1734 32.6369C64.2103 32.5837 64.232 32.5214 64.236 32.4567C64.2401 32.3921 64.2263 32.3276 64.1963 32.2702C64.1663 32.2128 64.1212 32.1647 64.0658 32.1312C64.0104 32.0976 63.9469 32.0798 63.8821 32.0798Z" fill="#253B80"/>
<path id="Vector_2" d="M70.6649 28.1423H66.4075C66.2667 28.1424 66.1305 28.1927 66.0235 28.2842C65.9164 28.3757 65.8456 28.5024 65.8236 28.6415L64.102 39.557C64.094 39.6076 64.0971 39.6593 64.111 39.7086C64.1249 39.7578 64.1493 39.8035 64.1825 39.8424C64.2158 39.8814 64.2571 39.9126 64.3035 39.934C64.35 39.9555 64.4006 39.9666 64.4518 39.9666H66.6365C66.7351 39.9664 66.8304 39.9311 66.9052 39.867C66.9801 39.8029 67.0296 39.7141 67.0448 39.6168L67.5334 36.5227C67.5553 36.3835 67.6261 36.2566 67.7331 36.165C67.8401 36.0734 67.9764 36.023 68.1173 36.0229H69.4642C72.2689 36.0229 73.8866 34.666 74.3098 31.9771C74.5009 30.8007 74.3173 29.8764 73.7664 29.2291C73.162 28.5183 72.0896 28.1423 70.6649 28.1423ZM71.156 32.129C70.9238 33.6564 69.7568 33.6564 68.6277 33.6564H67.986L68.4372 30.8038C68.4502 30.7204 68.4925 30.6443 68.5567 30.5894C68.6209 30.5345 68.7026 30.5043 68.787 30.5045H69.0814C69.8495 30.5045 70.5752 30.5045 70.9499 30.9426C71.1734 31.2041 71.2412 31.5925 71.156 32.129ZM83.3885 32.0798H81.3513C81.2668 32.0796 81.185 32.1097 81.1209 32.1646C81.0567 32.2195 81.0143 32.2957 81.0015 32.3792L80.9113 32.9493L80.7681 32.7427C80.3268 32.1022 79.3434 31.8881 78.3612 31.8881C76.1086 31.8881 74.1853 33.5942 73.8106 35.9874C73.6164 37.1812 73.8922 38.3227 74.5694 39.1188C75.1918 39.8508 76.0794 40.1558 77.1369 40.1558C78.9519 40.1558 79.9583 38.9887 79.9583 38.9887L79.8674 39.5551C79.8593 39.6059 79.8623 39.6578 79.8763 39.7073C79.8902 39.7567 79.9147 39.8026 79.9481 39.8417C79.9814 39.8807 80.0229 39.9121 80.0696 39.9335C80.1163 39.955 80.1671 39.9661 80.2185 39.966H82.054C82.1949 39.9659 82.3312 39.9155 82.4382 39.8238C82.5453 39.7322 82.6161 39.6054 82.6379 39.4661L83.7402 32.4894C83.748 32.4387 83.7447 32.3869 83.7307 32.3376C83.7166 32.2883 83.692 32.2426 83.6586 32.2037C83.6252 32.1648 83.5837 32.1336 83.5371 32.1122C83.4905 32.0908 83.4398 32.0798 83.3885 32.0798ZM80.5471 36.0472C80.3517 37.2117 79.4261 37.9935 78.2473 37.9935C77.6566 37.9935 77.1823 37.8036 76.8786 37.4439C76.5773 37.0866 76.464 36.5781 76.5586 36.0117C76.7435 34.8571 77.6821 34.0498 78.8429 34.0498C79.4218 34.0498 79.8923 34.2421 80.2023 34.605C80.5141 34.9716 80.6374 35.4832 80.5471 36.0472ZM85.7917 28.4417L84.0445 39.557C84.0365 39.6076 84.0396 39.6593 84.0535 39.7086C84.0674 39.7578 84.0918 39.8035 84.125 39.8424C84.1583 39.8814 84.1996 39.9126 84.2461 39.934C84.2926 39.9555 84.3432 39.9666 84.3944 39.9666H86.1508C86.4428 39.9666 86.6905 39.7549 86.7353 39.4668L88.4582 28.5519C88.4662 28.5013 88.4631 28.4496 88.4492 28.4003C88.4353 28.351 88.4109 28.3053 88.3777 28.2663C88.3444 28.2273 88.3032 28.196 88.2567 28.1745C88.2102 28.153 88.1596 28.1418 88.1084 28.1417H86.1415C86.0571 28.142 85.9755 28.1724 85.9114 28.2274C85.8473 28.2823 85.8049 28.3583 85.7917 28.4417Z" fill="#179BD7"/>
<path id="Vector_3" d="M16.0614 42.0878L16.3869 40.0201L15.6618 40.0033H12.1992L14.6055 24.7458C14.6127 24.6992 14.6364 24.6567 14.6722 24.6261C14.7081 24.5954 14.7538 24.5787 14.801 24.579H20.6393C22.5775 24.579 23.9151 24.9823 24.6135 25.7784C24.9409 26.1519 25.1494 26.5421 25.2502 26.9716C25.3561 27.4222 25.3579 27.9606 25.2546 28.6173L25.2471 28.6652V29.086L25.5745 29.2715C25.8245 29.3981 26.0491 29.5694 26.2374 29.7769C26.5175 30.0962 26.6986 30.502 26.7752 30.9831C26.8542 31.478 26.8281 32.0668 26.6986 32.7334C26.5492 33.5002 26.3077 34.1681 25.9816 34.7146C25.6938 35.2041 25.3069 35.6281 24.8457 35.9594C24.4125 36.2669 23.8977 36.5003 23.3157 36.6497C22.7518 36.7966 22.1089 36.8706 21.4037 36.8706H20.9493C20.6244 36.8706 20.3088 36.9877 20.0611 37.1974C19.8137 37.4094 19.6496 37.7023 19.598 38.024L19.5638 38.2101L18.9886 41.8544L18.9625 41.9882C18.9557 42.0306 18.9438 42.0517 18.9264 42.066C18.9095 42.0798 18.8885 42.0875 18.8666 42.0878H16.0614Z" fill="#253B80"/>
<path id="Vector_4" d="M25.8845 28.7137C25.8671 28.8252 25.8472 28.9391 25.8248 29.0561C25.0548 33.0091 22.4207 34.3747 19.0565 34.3747H17.3436C16.9322 34.3747 16.5855 34.6735 16.5214 35.0793L15.6444 40.6413L15.396 42.2179C15.3861 42.2804 15.3899 42.3444 15.4071 42.4053C15.4243 42.4663 15.4545 42.5227 15.4956 42.5709C15.5367 42.619 15.5877 42.6577 15.6452 42.6842C15.7027 42.7108 15.7653 42.7245 15.8286 42.7246H18.8667C19.2264 42.7246 19.532 42.4631 19.5887 42.1084L19.6185 41.954L20.1906 38.324L20.2273 38.1248C20.2833 37.7688 20.5895 37.5074 20.9493 37.5074H21.4037C24.3471 37.5074 26.6513 36.3123 27.3248 32.8541C27.6061 31.4095 27.4605 30.2032 26.7161 29.3548C26.4801 29.0924 26.1983 28.8752 25.8845 28.7137Z" fill="#179BD7"/>
<path id="Vector_5" d="M25.0792 28.3925C24.8334 28.3214 24.5833 28.2659 24.3304 28.2264C23.8308 28.1496 23.3259 28.1127 22.8204 28.1162H18.2444C18.0702 28.1161 17.9018 28.1782 17.7694 28.2915C17.6371 28.4047 17.5497 28.5616 17.523 28.7336L16.5495 34.8994L16.5215 35.0793C16.5518 34.883 16.6514 34.704 16.8022 34.5748C16.953 34.4456 17.1451 34.3746 17.3437 34.3747H19.0566C22.4208 34.3747 25.0549 33.0085 25.8249 29.0561C25.8479 28.939 25.8672 28.8251 25.8846 28.7137C25.6815 28.6072 25.4697 28.5179 25.2516 28.4467C25.1945 28.4277 25.137 28.4097 25.0792 28.3925Z" fill="#222D65"/>
<path id="Vector_6" d="M17.523 28.7337C17.5495 28.5616 17.6369 28.4047 17.7693 28.2915C17.9017 28.1783 18.0702 28.1163 18.2444 28.1169H22.8205C23.3626 28.1169 23.8686 28.1524 24.3305 28.2271C24.643 28.2762 24.9512 28.3496 25.2523 28.4468C25.4795 28.5221 25.6905 28.6111 25.8853 28.7138C26.1144 27.253 25.8834 26.2583 25.0936 25.3577C24.2228 24.3661 22.6512 23.9417 20.6401 23.9417H14.8018C14.391 23.9417 14.0405 24.2404 13.977 24.6469L11.5452 40.0612C11.5339 40.1328 11.5382 40.206 11.5579 40.2757C11.5775 40.3455 11.612 40.4101 11.6591 40.4652C11.7061 40.5204 11.7645 40.5647 11.8303 40.5951C11.896 40.6255 11.9676 40.6412 12.0401 40.6413H15.6445L16.5495 34.8995L17.523 28.7337Z" fill="#253B80"/>
</g>
</svg>
