<svg width="24" height="25" viewBox="0 0 24 25" fill="none" xmlns="http://www.w3.org/2000/svg">
<g id="vuesax/linear/shop">
<g id="shop">
<path id="Vector" d="M3.00977 11.72V16.21C3.00977 20.7 4.80977 22.5 9.29977 22.5H14.6898C19.1798 22.5 20.9798 20.7 20.9798 16.21V11.72" stroke="#1E4C2F" stroke-width="1.5" stroke-linecap="round" stroke-linejoin="round"/>
<path id="Vector_2" d="M12.0005 12.5C13.8305 12.5 15.1805 11.01 15.0005 9.18L14.3405 2.5H9.67048L9.00048 9.18C8.82048 11.01 10.1705 12.5 12.0005 12.5Z" stroke="#1E4C2F" stroke-width="1.5" stroke-linecap="round" stroke-linejoin="round"/>
<path id="Vector_3" d="M18.3098 12.5C20.3298 12.5 21.8098 10.86 21.6098 8.85L21.3298 6.1C20.9698 3.5 19.9698 2.5 17.3498 2.5H14.2998L14.9998 9.51C15.1698 11.16 16.6598 12.5 18.3098 12.5Z" stroke="#1E4C2F" stroke-width="1.5" stroke-linecap="round" stroke-linejoin="round"/>
<path id="Vector_4" d="M5.64037 12.5C7.29037 12.5 8.78037 11.16 8.94037 9.51L9.16037 7.3L9.64037 2.5H6.59037C3.97037 2.5 2.97037 3.5 2.61037 6.1L2.34037 8.85C2.14037 10.86 3.62037 12.5 5.64037 12.5Z" stroke="#1E4C2F" stroke-width="1.5" stroke-linecap="round" stroke-linejoin="round"/>
<path id="Vector_5" d="M12 17.5C10.33 17.5 9.5 18.33 9.5 20V22.5H14.5V20C14.5 18.33 13.67 17.5 12 17.5Z" stroke="#1B2124" stroke-width="1.5" stroke-linecap="round" stroke-linejoin="round"/>
</g>
</g>
</svg>
