<svg width="69" height="46" viewBox="0 0 69 46" fill="none" xmlns="http://www.w3.org/2000/svg">
<g id="Stripe_(company)-Logo.wine (1) 1">
<g id="g32">
<path id="path18" fill-rule="evenodd" clip-rule="evenodd" d="M61.0404 23.3687C61.0404 19.5943 59.2122 16.6161 55.718 16.6161C52.209 16.6161 50.0859 19.5943 50.0859 23.3392C50.0859 27.777 52.5923 30.018 56.1898 30.018C57.9443 30.018 59.2712 29.6199 60.2738 29.0597V26.111C59.2712 26.6122 58.1212 26.9219 56.6616 26.9219C55.2314 26.9219 53.9635 26.4206 53.8013 24.6808H61.0109C61.0109 24.4892 61.0404 23.7225 61.0404 23.3687ZM53.7571 21.968C53.7571 20.302 54.7744 19.609 55.7032 19.609C56.6026 19.609 57.5609 20.302 57.5609 21.968H53.7571Z" fill="#32325D"/>
<path id="path20" fill-rule="evenodd" clip-rule="evenodd" d="M44.3953 16.6161C42.9504 16.6161 42.0216 17.2943 41.5056 17.7661L41.3139 16.852H38.0703V34.043L41.7562 33.2616L41.7709 29.0892C42.3017 29.4725 43.0831 30.018 44.3806 30.018C47.0197 30.018 49.4229 27.8949 49.4229 23.2212C49.4081 18.9456 46.9754 16.6161 44.3953 16.6161ZM43.5107 26.7744C42.6408 26.7744 42.1248 26.4648 41.7709 26.0815L41.7562 20.6116C42.1395 20.184 42.6703 19.8892 43.5107 19.8892C44.8524 19.8892 45.7812 21.393 45.7812 23.3244C45.7812 25.3001 44.8671 26.7744 43.5107 26.7744Z" fill="#32325D"/>
<path id="polygon22" fill-rule="evenodd" clip-rule="evenodd" d="M36.6987 11.957L32.998 12.7384V15.7461L36.6987 14.95V11.957Z" fill="#32325D"/>
<path id="rect24" fill-rule="evenodd" clip-rule="evenodd" d="M32.998 16.8666H36.6987V29.7672H32.998V16.8666Z" fill="#32325D"/>
<path id="path26" fill-rule="evenodd" clip-rule="evenodd" d="M29.0318 17.9577L28.7959 16.8666H25.6113V29.7673H29.2972V21.0243C30.1671 19.8891 31.6415 20.0955 32.0985 20.2577V16.8666C31.6267 16.6897 29.9017 16.3653 29.0318 17.9577Z" fill="#32325D"/>
<path id="path28" fill-rule="evenodd" clip-rule="evenodd" d="M21.6591 13.6674L18.0616 14.434L18.0469 26.2436C18.0469 28.4257 19.6834 30.0327 21.8655 30.0327C23.0744 30.0327 23.9591 29.8116 24.4456 29.5462V26.5533C23.9738 26.7449 21.6443 27.4231 21.6443 25.2411V20.0071H24.4456V16.8667H21.6443L21.6591 13.6674Z" fill="#32325D"/>
<path id="path30" fill-rule="evenodd" clip-rule="evenodd" d="M11.693 20.6116C11.693 20.0366 12.1648 19.8154 12.9462 19.8154C14.0667 19.8154 15.4821 20.1546 16.6026 20.759V17.2943C15.3789 16.8078 14.1699 16.6161 12.9462 16.6161C9.95328 16.6161 7.96289 18.1789 7.96289 20.7885C7.96289 24.8578 13.5655 24.209 13.5655 25.9635C13.5655 26.6417 12.9757 26.8629 12.1501 26.8629C10.9264 26.8629 9.36353 26.3616 8.12507 25.6834V29.1924C9.49622 29.7821 10.8821 30.0328 12.1501 30.0328C15.2167 30.0328 17.3251 28.5142 17.3251 25.8751C17.3103 21.4815 11.693 22.2629 11.693 20.6116Z" fill="#32325D"/>
</g>
</g>
</svg>
