<svg width="138" height="138" viewBox="0 0 138 138" fill="none" xmlns="http://www.w3.org/2000/svg">
<g id="vuesax/bulk/tick-circle">
<g id="tick-circle">
<path id="Vector" opacity="0.1" d="M68.998 126.5C100.754 126.5 126.498 100.756 126.498 68.9998C126.498 37.2434 100.754 11.4998 68.998 11.4998C37.2417 11.4998 11.498 37.2434 11.498 68.9998C11.498 100.756 37.2417 126.5 68.998 126.5Z" fill="#1D9E34"/>
<path id="Vector_2" d="M60.8382 89.5853C59.6882 89.5853 58.5957 89.1253 57.7907 88.3203L41.5182 72.0478C39.8507 70.3803 39.8507 67.6203 41.5182 65.9528C43.1857 64.2853 45.9457 64.2853 47.6132 65.9528L60.8382 79.1778L90.3932 49.6228C92.0607 47.9553 94.8207 47.9553 96.4882 49.6228C98.1557 51.2903 98.1557 54.0503 96.4882 55.7178L63.8857 88.3203C63.0807 89.1253 61.9882 89.5853 60.8382 89.5853Z" fill="#1D9E34"/>
</g>
</g>
</svg>
